<?xml version="1.0" encoding="iso-8859-1"?>
<!-- Generator: Adobe Illustrator 16.0.0, SVG Export Plug-In . SVG Version: 6.00 Build 0)  -->
<!DOCTYPE svg PUBLIC "-//W3C//DTD SVG 1.1//EN" "http://www.w3.org/Graphics/SVG/1.1/DTD/svg11.dtd">
<svg xmlns="http://www.w3.org/2000/svg" xmlns:xlink="http://www.w3.org/1999/xlink" version="1.1" id="Capa_1" x="0px" y="0px" width="512px" height="512px" viewBox="0 0 432.056 432.056" style="enable-background:new 0 0 432.056 432.056;" xml:space="preserve">
<g>
	<g id="Layer_8_3_">
		<path d="M326.44,217.315c-11.655-3.836-29.709-0.411-41.961-0.411c-10.783,0-23.589,1.839-34.934,0.5    c-2.782-0.832-5.699-1.416-8.829-1.671c-3.629-0.292-4.062,5.124-0.828,6.122c2.606,0.805,5.334,1.279,8.136,1.639    c9.724,3.117,16.702,10.242,24.855,16.605c-1.644,0.255-3.337,0.706-5.176,1.113c-7.222,1.56-16.307,0.433-23.278-1.406    c-2.595-0.688-6.559-1.522-9.213-0.591c-4.037,1.425-7.344,3.288-11.021,5.571c-13.427,8.349-15.053-7.203-17.491-13.194    c-1.471-3.63-4.762-6.071-8.729-6.071c-11.042,0-22.396,12.525-28.391,22.019c-6.284,1.571-32.236,5.121-35.634,2.515    c-0.597-0.463-1.352-0.487-2.07-0.354c3.486-5.991,7.562-11.63,7.115-19.168c-0.088-1.584-1.352-3.276-3.118-3.118    c-9.548,0.865-18.938,2.729-28.339,4.519c0.423-5.48,0.636-10.997,0.667-16.599c0.037-4.022-6.199-4.022-6.235,0    c-0.037,5.992-0.255,11.898-0.755,17.792c-6.978,1.267-13.965,2.362-21.068,2.861c-3.973,0.281-4.041,6.395,0,6.236    c7.745-0.305,14.964,2.24,19.129,9.365c1.303,2.216,5.151,1.973,5.7-0.743c0.855-4.202,1.434-8.379,1.915-12.556    c8.509-1.62,17.022-3.289,25.656-4.263c-1.388,9.767-10.36,17.513-11.484,27.669c-0.292,2.691,3.629,4.152,5.325,2.211    c1.279-1.475,4.844-8.574,7.283-5.457c1.434,1.827,5.164,1.9,7.319,1.529c5.358-0.914,9.24-4.713,14.76-4.519    c4.664,0.146,8.61-0.286,12.869-1.267c1.352,1.15,3.529,1.328,4.628-0.664c2.935-5.291,23.163-30.816,28.57-17.506    c3.458,8.477,3.203,14.09,12.239,17.75c2.719,1.096,6.503-0.5,8.981-1.357c8.33-2.887,13.725-8.19,23.735-5.561    c7.015,1.857,27.925-3.403,31.286,3.642c4.226,8.86,18.414,5.646,12.495-3.781c-4.263-6.808-14.626-12.343-20.557-17.378    c-2.29-1.949-4.579-3.727-6.93-5.322c7.307-0.244,14.632-0.913,21.403-0.913c10.26,0,20.532,0,30.793,0    c12.422,0,9.669,5.091,6.149,13.237c-1.57,3.642,3.8,6.826,5.383,3.148C330.221,231.628,338.32,221.228,326.44,217.315z     M100.075,242.734c-1.072-0.974-2.238-1.814-3.458-2.569c1.303-0.219,2.618-0.438,3.921-0.682    C100.407,240.567,100.24,241.657,100.075,242.734z M262.157,334.596c-15.205-0.926-21.44-10.607-34.525,1.12    c-5.085,4.579-7.368,8.27-14.627,11.07c0.609-0.231-12.166,1.291-13.813,1.534c-1.888,0.269-4.153,1.364-5.492,2.776    c-7.651,8.123-17.427,9.391-27.255,4.799c-8.442-3.934-19.397-7.271-30.296-8.025c1.391-9.316,2.277-22.262-3.717-23.285    c-6.235-1.06-10.848,2.448-15.954,5.785c-10.531,6.881-7.539-7.88-11.898-11.6c-9.913-8.514-22.347,8.664-29.885,13.542    c-3.361,2.174-0.231,7.581,3.154,5.376c4.205-2.728,22.167-22.049,23.471-8.975c0.393,3.945,0.636,10.333,5.956,10.808    c6.439,0.573,22.627-11.897,22.959-3.647c0.155,3.939-0.195,7.929-0.576,11.874c-10.3,0.359-20.097,3.478-27.148,11.155    c-1.416,1.535-1.096,4.835,1.379,5.213c9.17,1.327,28.12,6.125,30.79-7.77c0.113-0.549,0.256-1.353,0.423-2.248    c5.468-0.042,10.781,0.445,15.202,1.213c5.903,1.01,10.68,4.907,15.999,7.386c5.152,2.417,11.816,2.313,17.342,2.417    c2.975,0.049,7.681-1.547,9.621-3.988c7.14-8.969,17.802-4.896,26.128-10.169c4.829-3.044,8.622-6.747,12.635-10.808    c9.098-9.201,20.381,0.097,30.117,0.699C266.181,341.074,266.157,334.839,262.157,334.596z M112.11,359.281    c4.665-2.753,10.376-4.251,16.332-4.859C125.747,360.779,118.477,360.358,112.11,359.281z M89.395,150.119    c0.292,0.691,0.536,1.303,0.718,1.739c1.671,3.885,3.809,6.646,7.575,8.5c1.647,0.804,4.265,1.02,5.891,0.109    c4.896-2.773,5.775-5.273,11.256-2.058c4.266,2.496,9.876,0.256,13.874,3.617c2.898,2.439,3.653,3.374,7.575,3.824    c3.997,0.448,3.961-5.787,0-6.235c-3.486-0.399-5.992-5.008-9.877-5.587c-3.528-0.536-6.82,0.341-10.007-2.463    c-1.279-1.123-1.659-2.253-3.474-2.35c-4.125-0.195-13.505,6.111-16.209,1.97c-2.134-3.285-2.95-7.651-5.301-10.852    c1.251-8.729,1.264-17.783,0.828-26.317c-0.192-4.01-6.427-4.022-6.235,0c0.381,7.243,0.463,14.882-0.329,22.335    c-12.547-3.249-16.675,29.475-17.211,36.9c-0.207,2.975,3.437,3.772,5.325,2.208C81.957,168.688,86.707,159.807,89.395,150.119z     M81.357,145.467c1.111-2.214,2.241-2.75,3.312-2.363c-1.486,7.694-4.217,14.988-8.906,21.199    C76.793,157.764,78.471,151.221,81.357,145.467z M431.953,61.445L129.294,1.211l-0.728-0.143L29.374,1.251L0,1.211v429.776    h432.056V71.882L431.953,61.445z M407.267,81.056c-4.592,19.628-17.774,59.284-51.965,79.667    c-28.388-25.501-117.691-86.45-177.441-126.48L407.267,81.056z M409.398,408.323H22.658V23.921l5.008-0.012l93.898,0.125    c52.857,34.879,132.378,88.473,181.444,124.438c-5.931-1.328-11.283-1.048-17.354,0.447c-10.248,2.533-13.737,10.489-24.637,2.159    c-4.013-3.057-8.343-2.813-12.934-2.107c-3.629,0.561-7.514,2.667-11.033,3.784c-7.222,2.339-11.527-3.169-16.18-6.746    c-1.388-1.072-3.44-0.168-4.277,1.123c-8.074,12.662-18.279,4.445-27.982,0.037c-3.081-8.598-7.051-16.635-14.297-18.794    c-5.008-1.495-9.685,2.021-11.024,7.027c-2.208,8.15,6.938,10.57,10.157,15.104c-0.411,2.192-0.131,4.676,0.755,6.82    c1.148,2.801,4.957,3.105,6.004,0c0.536-1.596,0.743-2.962,0.804-4.277c0.648-0.131,1.522-0.049,2.497,0.167    c2.18,5.955,4.113,11.986,7.368,17.317c2.095,3.422,7.49,0.292,5.383-3.142c-1.729-2.838-3.142-6.786-4.563-11.082    c4.688,1.684,9.812,3.51,14.796,3.568c7.207,0.097,10.093-1.839,13.451-6.58c2.851,2.582,6.06,5.675,9.792,5.979    c9.377,0.768,19.278-7.395,28.119-2.825c5.249,2.707,7.319,6.872,13.555,6.287c1.602-0.143,3.222-1.178,4.567-1.802    c9.645-4.433,15.795-9.198,27.048-6.111c2.509,0.679,4.055-1.57,3.824-3.541c19.047,14.066,32.941,25.121,37.947,30.82    l5.663,6.439l7.77-3.696c23.869-11.459,40.14-29.542,51.173-47.937V408.323z M180.044,144.891    c-0.868,0.027-1.647,0.146-2.326,0.38c-1.583-1.559-4.01-2.737-5.785-3.796c-5.836-3.458,0.621-8.659,5.285-1.62    C178.3,141.469,179.204,143.159,180.044,144.891z" fill="#FFDA44"/>
	</g>
</g>
<g>
</g>
<g>
</g>
<g>
</g>
<g>
</g>
<g>
</g>
<g>
</g>
<g>
</g>
<g>
</g>
<g>
</g>
<g>
</g>
<g>
</g>
<g>
</g>
<g>
</g>
<g>
</g>
<g>
</g>
</svg>
