<?xml version="1.0" encoding="iso-8859-1"?>
<!-- Generator: Adobe Illustrator 19.0.0, SVG Export Plug-In . SVG Version: 6.00 Build 0)  -->
<svg xmlns="http://www.w3.org/2000/svg" xmlns:xlink="http://www.w3.org/1999/xlink" version="1.1" id="Capa_1" x="0px" y="0px" viewBox="0 0 512.04 512.04" style="enable-background:new 0 0 512.04 512.04;" xml:space="preserve" width="512px" height="512px">
<g transform="translate(-1)">
	<g>
		<g>
			<path d="M500.536,439.074L377.554,316.096c50.902-78.592,41.99-181.703-21.64-250.397S190.154-19.759,107.902,24.989     C25.65,69.736-15.756,164.587,7.35,255.328s104.834,154.237,198.47,154.197c39.548,0.032,78.249-11.458,111.372-33.066     l122.978,122.987c16.671,16.67,43.699,16.669,60.369-0.002C517.208,482.772,517.207,455.744,500.536,439.074z M205.819,392.458     c-103.682,0-187.733-84.051-187.733-187.733c0.117-103.634,84.1-187.616,187.733-187.733     c103.682,0,187.733,84.051,187.733,187.733S309.502,392.458,205.819,392.458z M488.469,487.371     c-10.147,9.655-26.084,9.657-36.233,0.004L331.285,366.419c13.534-10.525,25.704-22.695,36.229-36.229l120.956,120.952     C498.453,461.155,498.453,477.357,488.469,487.371z" fill="#FFDA44"/>
			<path d="M364.331,141.152C338.447,76.289,275.656,33.741,205.819,33.741S73.192,76.289,47.308,141.152     c-25.884,64.863-9.638,138.951,41.011,187.033v0c0.259,0.351,0.546,0.681,0.858,0.985c0.149,0.115,0.333,0.135,0.488,0.239     c24.59,22.975,55.446,38.135,88.659,43.558c0.904,0.34,1.859,0.525,2.824,0.545c0.132,0,0.257-0.047,0.388-0.053     c8.038,1.223,16.152,1.868,24.282,1.932c8.13-0.064,16.245-0.71,24.282-1.932c0.131,0.006,0.257,0.053,0.389,0.053     c0.965-0.02,1.92-0.204,2.824-0.545c33.188-5.42,64.023-20.561,88.605-43.509c0.174-0.115,0.374-0.159,0.542-0.288     c0.312-0.305,0.599-0.634,0.858-0.985C373.969,280.104,390.215,206.015,364.331,141.152z M176.392,355.427     c-25.625-5.011-49.541-16.495-69.474-33.36c0.689-0.511,1.342-1.099,2.06-1.534l32.887-18.545l21.088,16.587     c4.617,3.676,10.348,5.671,16.25,5.658c0.684,0,1.359-0.135,2.041-0.188l6.194,9.291L176.392,355.427z M185.365,304.766     c-3.306,3.009-8.301,3.191-11.817,0.429l-15.605-12.275l15.099-8.515l19.355,13.694L185.365,304.766z M259.994,169.258     l1.217,2.513c0.83,1.615,1.266,3.405,1.271,5.221v19.283c-0.035,2.916-1.114,5.724-3.042,7.912     c-0.175,0.15-0.346,0.308-0.513,0.475c-4.07,4.077-6.819,9.285-7.887,14.946c-4.511,9.817-10.176,19.061-16.875,27.537     c-1.764,2.366-2.726,5.233-2.746,8.183v13.246l-25.6,18.113l-25.6-18.113v-13.246c-0.019-2.942-0.975-5.801-2.729-8.163     c-6.693-8.468-12.359-17.699-16.879-27.5c-1.065-5.682-3.818-10.911-7.9-15.004c-0.163-0.163-0.333-0.317-0.508-0.467     c-1.93-2.191-3.01-5.001-3.046-7.921v-19.283c0.015-1.894,0.488-3.757,1.379-5.429l1.096-2.279     c1.963-4.002,2.985-8.401,2.987-12.858v-27.733c0.02-19.266,15.634-34.88,34.9-34.9h32.6c19.266,0.02,34.88,15.634,34.9,34.9     v27.733C257.021,160.873,258.038,165.262,259.994,169.258z M214.5,317.12l-4.714,7.071h-7.933l-4.713-7.069l8.68-8.224     L214.5,317.12z M205.819,358.324c-3.883,0-7.691-0.298-11.502-0.582v0l8.243-16.484h6.518l8.243,16.484     C213.51,358.026,209.702,358.324,205.819,358.324z M238.593,284.407l15.102,8.514l-15.65,12.311     c-3.511,2.728-8.476,2.533-11.763-0.463l-7.042-6.671L238.593,284.407z M235.247,355.426l-11.046-22.091l6.192-9.288     c0.687,0.054,1.367,0.189,2.056,0.189c5.879,0.014,11.588-1.969,16.192-5.625l21.134-16.625l32.666,18.417     c0.813,0.491,1.514,1.113,2.269,1.674C284.778,338.936,260.866,350.417,235.247,355.426z M317.199,310.185     c-1.928-1.667-3.986-3.178-6.155-4.519l-62.558-35.271v-13.929c12.679-17.554,17.921-26.679,19.3-33.575     c0.384-2.084,1.32-4.028,2.708-5.629c0.227-0.189,0.443-0.389,0.65-0.6c5.336-5.451,8.349-12.76,8.404-20.388v-19.283     c0.002-4.458-1.047-8.853-3.063-12.829l-1.121-2.33c-0.834-1.681-1.272-3.531-1.279-5.408v-27.733     c-0.033-28.687-23.28-51.934-51.967-51.967h-32.6c-28.687,0.033-51.934,23.28-51.967,51.967v27.733     c-0.009,1.886-0.451,3.745-1.292,5.433l-1,2.096c-2.078,4.032-3.164,8.502-3.171,13.037v19.283     c0.055,7.628,3.068,14.937,8.404,20.388c0.203,0.208,0.417,0.404,0.642,0.587c1.403,1.622,2.346,3.59,2.729,5.7     c1.367,6.837,6.604,15.954,19.287,33.517v13.925l-62.779,35.404c-2.092,1.302-4.078,2.768-5.939,4.384     c-42.284-44.479-53.984-109.882-29.743-166.262c24.241-56.38,79.757-92.882,141.127-92.794     c61.372-0.089,116.888,36.415,141.129,92.797C371.189,200.303,359.486,265.707,317.199,310.185z" fill="#FFDA44"/>
			<path d="M473.466,461.516c-3.726-1.522-8.007-0.205-10.235,3.146s-1.783,7.809,1.063,10.654c1.637,1.556,3.8,2.44,6.059,2.475     c4.024-0.039,7.462-2.911,8.218-6.863S477.191,463.037,473.466,461.516z" fill="#FFDA44"/>
		</g>
	</g>
</g>
<g>
</g>
<g>
</g>
<g>
</g>
<g>
</g>
<g>
</g>
<g>
</g>
<g>
</g>
<g>
</g>
<g>
</g>
<g>
</g>
<g>
</g>
<g>
</g>
<g>
</g>
<g>
</g>
<g>
</g>
</svg>
